{
  "accessors": [
    {
      "bufferView": 2,
      "componentType": 5126,
      "count": 4151,
      "max": [
        0.99359530210495,
        0.99359530210495,
        0.0
      ],
      "min": [
        -0.99359530210495,
        -0.99359530210495,
        -0.6500005722045898
      ],
      "type": "VEC3"
    },
    {
      "bufferView": 2,
      "byteOffset": 49812,
      "componentType": 5126,
      "count": 4151,
      "max": [
        1.0,
        1.0,
        1.0
      ],
      "min": [
        -1.0,
        -1.0,
        -1.0
      ],
      "type": "VEC3"
    },
    {
      "bufferView": 1,
      "componentType": 5126,
      "count": 4151,
      "max": [
        0.4904390871524811,
        0.9903841018676758
      ],
      "min": [
        0.009615967981517315,
        0.07451939582824707
      ],
      "type": "VEC2"
    },
    {
      "bufferView": 0,
      "componentType": 5125,
      "count": 19968,
      "type": "SCALAR"
    }
  ],
  "asset": {
    "extras": {
      "author": "MaggaModels (https://sketchfab.com/MaggaModels)",
      "license": "CC-BY-4.0 (http://creativecommons.org/licenses/by/4.0/)",
      "source": "https://sketchfab.com/3d-models/peppermint-candy-a270002392b847d1954f6c61b0dca572",
      "title": "Peppermint Candy"
    },
    "generator": "Sketchfab-14.35.0",
    "version": "2.0"
  },
  "bufferViews": [
    {
      "buffer": 0,
      "byteLength": 79872,
      "name": "floatBufferViews",
      "target": 34963
    },
    {
      "buffer": 0,
      "byteLength": 33208,
      "byteOffset": 79872,
      "byteStride": 8,
      "name": "floatBufferViews",
      "target": 34962
    },
    {
      "buffer": 0,
      "byteLength": 99624,
      "byteOffset": 113080,
      "byteStride": 12,
      "name": "floatBufferViews",
      "target": 34962
    }
  ],
  "buffers": [
    {
      "byteLength": 212704,
      "uri": "peppermintCandy.bin"
    }
  ],
  "images": [
    {
      "uri": "textures/peppermint_baseColor.png"
    }
  ],
  "materials": [
    {
      "doubleSided": true,
      "name": "peppermint",
      "pbrMetallicRoughness": {
        "baseColorTexture": {
          "index": 0
        },
        "metallicFactor": 0.0,
        "roughnessFactor": 0.7737258300203048
      }
    }
  ],
  "meshes": [
    {
      "name": "peppermint candy_peppermint_0",
      "primitives": [
        {
          "attributes": {
            "NORMAL": 1,
            "POSITION": 0,
            "TEXCOORD_0": 2
          },
          "indices": 3,
          "material": 0,
          "mode": 4
        }
      ]
    }
  ],
  "nodes": [
    {
      "children": [
        1
      ],
      "matrix": [
        1.0,
        0.0,
        0.0,
        0.0,
        0.0,
        2.220446049250313e-16,
        -1.0,
        0.0,
        0.0,
        1.0,
        2.220446049250313e-16,
        0.0,
        0.0,
        0.0,
        0.0,
        1.0
      ],
      "name": "Sketchfab_model"
    },
    {
      "children": [
        2
      ],
      "matrix": [
        0.009999999776482582,
        0.0,
        0.0,
        0.0,
        0.0,
        0.0,
        0.009999999776482582,
        0.0,
        0.0,
        -0.009999999776482582,
        0.0,
        0.0,
        0.0,
        0.0,
        0.0,
        1.0
      ],
      "name": "b747a8a7cff841aaafe8e60e90b8b73d.fbx"
    },
    {
      "children": [
        3
      ],
      "name": "RootNode"
    },
    {
      "children": [
        4
      ],
      "matrix": [
        100.0,
        0.0,
        0.0,
        0.0,
        0.0,
        -1.629206793918314e-05,
        -99.99999999999868,
        0.0,
        0.0,
        99.99999999999868,
        -1.629206793918314e-05,
        0.0,
        0.0,
        65.0,
        0.0,
        1.0
      ],
      "name": "peppermint candy"
    },
    {
      "mesh": 0,
      "name": "peppermint candy_peppermint_0"
    }
  ],
  "samplers": [
    {
      "magFilter": 9729,
      "minFilter": 9987,
      "wrapS": 10497,
      "wrapT": 10497
    }
  ],
  "scene": 0,
  "scenes": [
    {
      "name": "Sketchfab_Scene",
      "nodes": [
        0
      ]
    }
  ],
  "textures": [
    {
      "sampler": 0,
      "source": 0
    }
  ]
}
