{
  "accessors": [
    {
      "bufferView": 2,
      "componentType": 5126,
      "count": 4320,
      "max": [
        1.0000001192092896,
        1.0000001192092896,
        0.05431758612394333
      ],
      "min": [
        -1.0000001192092896,
        -1.0000001192092896,
        -0.009605083614587784
      ],
      "type": "VEC3"
    },
    {
      "bufferView": 2,
      "byteOffset": 51840,
      "componentType": 5126,
      "count": 4320,
      "max": [
        0.9605081081390381,
        1.0,
        0.9997183084487915
      ],
      "min": [
        -0.9605080485343933,
        -1.0,
        -0.999721884727478
      ],
      "type": "VEC3"
    },
    {
      "bufferView": 1,
      "componentType": 5126,
      "count": 4320,
      "max": [
        1.02741539478302,
        1.0117055177688599
      ],
      "min": [
        -0.02035703882575035,
        -0.011705339886248112
      ],
      "type": "VEC2"
    },
    {
      "bufferView": 0,
      "componentType": 5125,
      "count": 6720,
      "type": "SCALAR"
    }
  ],
  "asset": {
    "extras": {
      "author": "iayseozdemir (https://sketchfab.com/iayseozdemir)",
      "license": "CC-BY-4.0 (http://creativecommons.org/licenses/by/4.0/)",
      "source": "https://sketchfab.com/3d-models/golden-ticket-by-iayseozdemir-aebbe5543c624db7a1f91a306d5fca5f",
      "title": "Golden Ticket by iayseozdemir"
    },
    "generator": "Sketchfab-15.55.0",
    "version": "2.0"
  },
  "bufferViews": [
    {
      "buffer": 0,
      "byteLength": 26880,
      "name": "floatBufferViews",
      "target": 34963
    },
    {
      "buffer": 0,
      "byteLength": 34560,
      "byteOffset": 26880,
      "byteStride": 8,
      "name": "floatBufferViews",
      "target": 34962
    },
    {
      "buffer": 0,
      "byteLength": 103680,
      "byteOffset": 61440,
      "byteStride": 12,
      "name": "floatBufferViews",
      "target": 34962
    }
  ],
  "buffers": [
    {
      "byteLength": 165120,
      "uri": "goldenTicket.bin"
    }
  ],
  "extensionsUsed": [
    "KHR_materials_specular"
  ],
  "images": [
    {
      "uri": "textures/Golden_Ticket_Materyal_by_iayseozdemir_baseColor.png"
    },
    {
      "uri": "textures/Golden_Ticket_Materyal_by_iayseozdemir_metallicRoughness.png"
    },
    {
      "uri": "textures/Golden_Ticket_Materyal_by_iayseozdemir_specularf0.png"
    }
  ],
  "materials": [
    {
      "doubleSided": true,
      "extensions": {
        "KHR_materials_specular": {
          "specularColorFactor": [
            1.0,
            1.0,
            1.0
          ],
          "specularFactor": 0.0,
          "specularTexture": {
            "index": 2
          }
        }
      },
      "name": "Golden_Ticket_Materyal_by_iayseozdemir",
      "pbrMetallicRoughness": {
        "baseColorTexture": {
          "index": 0
        },
        "metallicFactor": 0.5409540295741854,
        "metallicRoughnessTexture": {
          "index": 1
        },
        "roughnessFactor": 0.6689544196706123
      }
    }
  ],
  "meshes": [
    {
      "name": "Golden_Ticket_Obj by iayseozdemir_Golden_Ticket_Materyal by iayseozdemir_0",
      "primitives": [
        {
          "attributes": {
            "NORMAL": 1,
            "POSITION": 0,
            "TEXCOORD_0": 2
          },
          "indices": 3,
          "material": 0,
          "mode": 4
        }
      ]
    }
  ],
  "nodes": [
    {
      "children": [
        1
      ],
      "matrix": [
        1.0,
        0.0,
        0.0,
        0.0,
        0.0,
        2.220446049250313e-16,
        -1.0,
        0.0,
        0.0,
        1.0,
        2.220446049250313e-16,
        0.0,
        0.0,
        0.0,
        0.0,
        1.0
      ],
      "name": "Sketchfab_model"
    },
    {
      "children": [
        2
      ],
      "matrix": [
        0.009999999776482582,
        0.0,
        0.0,
        0.0,
        0.0,
        0.0,
        0.009999999776482582,
        0.0,
        0.0,
        -0.009999999776482582,
        0.0,
        0.0,
        0.0,
        0.0,
        0.0,
        1.0
      ],
      "name": "bb82c0503e7146bba04ee307909d4b6e.fbx"
    },
    {
      "children": [
        3
      ],
      "name": "RootNode"
    },
    {
      "children": [
        4
      ],
      "matrix": [
        178.5651397705078,
        0.0,
        0.0,
        0.0,
        0.0,
        74.34136962890618,
        3.249564473617027e-06,
        0.0,
        0.0,
        -3.249564473617027e-06,
        74.34136962890618,
        0.0,
        0.0,
        0.0,
        0.0,
        1.0
      ],
      "name": "Golden_Ticket_Obj by iayseozdemir"
    },
    {
      "mesh": 0,
      "name": "Golden_Ticket_Obj by iayseozdemir_Golden_Ticket_Materyal by iayseozdemir_0"
    }
  ],
  "samplers": [
    {
      "magFilter": 9729,
      "minFilter": 9987,
      "wrapS": 10497,
      "wrapT": 10497
    }
  ],
  "scene": 0,
  "scenes": [
    {
      "name": "Sketchfab_Scene",
      "nodes": [
        0
      ]
    }
  ],
  "textures": [
    {
      "sampler": 0,
      "source": 0
    },
    {
      "sampler": 0,
      "source": 1
    },
    {
      "sampler": 0,
      "source": 2
    }
  ]
}
