{
  "accessors": [
    {
      "bufferView": 2,
      "componentType": 5126,
      "count": 1715,
      "max": [
        6.246322154998779,
        10.514960289001465,
        8.009160041809082
      ],
      "min": [
        0.08547133207321167,
        -6.644265174865723,
        0.0116958599537611
      ],
      "type": "VEC3"
    },
    {
      "bufferView": 2,
      "byteOffset": 20580,
      "componentType": 5126,
      "count": 1715,
      "max": [
        1.0,
        0.9963704943656921,
        0.9989364147186279
      ],
      "min": [
        -1.0,
        -0.9912393093109131,
        -0.9988616704940796
      ],
      "type": "VEC3"
    },
    {
      "bufferView": 1,
      "componentType": 5126,
      "count": 1715,
      "max": [
        0.9892575144767761,
        0.9752451181411743
      ],
      "min": [
        0.010742359794676304,
        0.010590190067887306
      ],
      "type": "VEC2"
    },
    {
      "bufferView": 0,
      "componentType": 5125,
      "count": 7698,
      "type": "SCALAR"
    }
  ],
  "asset": {
    "extras": {
      "author": "Melisa🌸 (https://sketchfab.com/bubirmelisa)",
      "license": "CC-BY-4.0 (http://creativecommons.org/licenses/by/4.0/)",
      "source": "https://sketchfab.com/3d-models/modern-office-desk-a960cf40826849f2adc0f262203f8d41",
      "title": "Modern Office Desk"
    },
    "generator": "Sketchfab-15.70.0",
    "version": "2.0"
  },
  "bufferViews": [
    {
      "buffer": 0,
      "byteLength": 30792,
      "name": "floatBufferViews",
      "target": 34963
    },
    {
      "buffer": 0,
      "byteLength": 13720,
      "byteOffset": 30792,
      "byteStride": 8,
      "name": "floatBufferViews",
      "target": 34962
    },
    {
      "buffer": 0,
      "byteLength": 41160,
      "byteOffset": 44512,
      "byteStride": 12,
      "name": "floatBufferViews",
      "target": 34962
    }
  ],
  "buffers": [
    {
      "byteLength": 85672,
      "uri": "desk.bin"
    }
  ],
  "images": [
    {
      "uri": "textures/Material.001_baseColor.jpeg"
    }
  ],
  "materials": [
    {
      "doubleSided": true,
      "name": "Material.001",
      "pbrMetallicRoughness": {
        "baseColorTexture": {
          "index": 0
        },
        "metallicFactor": 0.0,
        "roughnessFactor": 0.1630481159561629
      }
    }
  ],
  "meshes": [
    {
      "name": "Material_001-material",
      "primitives": [
        {
          "attributes": {
            "NORMAL": 1,
            "POSITION": 0,
            "TEXCOORD_0": 2
          },
          "indices": 3,
          "material": 0,
          "mode": 4
        }
      ]
    }
  ],
  "nodes": [
    {
      "children": [
        1
      ],
      "matrix": [
        0.10670488327741623,
        0.0,
        0.0,
        0.0,
        0.0,
        2.3693243650905467e-17,
        -0.10670488327741623,
        0.0,
        0.0,
        0.10670488327741623,
        2.3693243650905467e-17,
        0.0,
        0.0,
        0.0,
        0.0,
        1.0
      ],
      "name": "Sketchfab_model"
    },
    {
      "children": [
        2
      ],
      "name": "Collada visual scene group"
    },
    {
      "children": [
        3
      ],
      "matrix": [
        1.0,
        0.0,
        0.0,
        0.0,
        0.0,
        1.0,
        0.0,
        0.0,
        0.0,
        0.0,
        1.0,
        0.0,
        -0.06297565,
        -0.01040256,
        -0.003324032,
        1.0
      ],
      "name": "Plane"
    },
    {
      "mesh": 0,
      "name": "Material_001-material"
    }
  ],
  "samplers": [
    {
      "magFilter": 9729,
      "minFilter": 9987,
      "wrapS": 10497,
      "wrapT": 10497
    }
  ],
  "scene": 0,
  "scenes": [
    {
      "name": "Sketchfab_Scene",
      "nodes": [
        0
      ]
    }
  ],
  "textures": [
    {
      "sampler": 0,
      "source": 0
    }
  ]
}
