{
  "accessors": [
    {
      "bufferView": 2,
      "componentType": 5126,
      "count": 726,
      "max": [
        -2.562135934829712,
        -4.6673431396484375,
        0.7878220081329346
      ],
      "min": [
        -3.85725998878479,
        -5.617942810058594,
        0.1196959987282753
      ],
      "type": "VEC3"
    },
    {
      "bufferView": 2,
      "byteOffset": 8712,
      "componentType": 5126,
      "count": 726,
      "max": [
        0.9956383109092712,
        0.9957922101020813,
        0.9998379349708557
      ],
      "min": [
        -0.9984694719314575,
        -0.9974150657653809,
        -0.9999997615814209
      ],
      "type": "VEC3"
    },
    {
      "bufferView": 1,
      "componentType": 5126,
      "count": 726,
      "max": [
        0.3173860013484955,
        0.672120988368988
      ],
      "min": [
        0.01052400004118681,
        0.3428269922733307
      ],
      "type": "VEC2"
    },
    {
      "bufferView": 0,
      "componentType": 5125,
      "count": 3600,
      "type": "SCALAR"
    },
    {
      "bufferView": 2,
      "byteOffset": 17424,
      "componentType": 5126,
      "count": 630,
      "max": [
        -2.4177229404449463,
        -0.031536001712083817,
        1.3979560136795044
      ],
      "min": [
        -3.806770086288452,
        -1.2745879888534546,
        0.12709200382232666
      ],
      "type": "VEC3"
    },
    {
      "bufferView": 2,
      "byteOffset": 24984,
      "componentType": 5126,
      "count": 630,
      "max": [
        0.9975210428237915,
        0.9975210428237915,
        0.9994168281555176
      ],
      "min": [
        -0.9975210428237915,
        -0.9975210428237915,
        -1.0
      ],
      "type": "VEC3"
    },
    {
      "bufferView": 1,
      "byteOffset": 5808,
      "componentType": 5126,
      "count": 630,
      "max": [
        0.637669026851654,
        0.6655610203742981
      ],
      "min": [
        0.3427110016345978,
        0.3361949920654297
      ],
      "type": "VEC2"
    },
    {
      "bufferView": 0,
      "byteOffset": 14400,
      "componentType": 5125,
      "count": 3024,
      "type": "SCALAR"
    },
    {
      "bufferView": 2,
      "byteOffset": 32544,
      "componentType": 5126,
      "count": 696,
      "max": [
        -1.3968650102615356,
        -2.581918954849243,
        1.5120450258255005
      ],
      "min": [
        -2.7270569801330566,
        -3.6035308837890625,
        0.13549800217151642
      ],
      "type": "VEC3"
    },
    {
      "bufferView": 2,
      "byteOffset": 40896,
      "componentType": 5126,
      "count": 696,
      "max": [
        0.9978724122047424,
        0.9978724122047424,
        0.999690592288971
      ],
      "min": [
        -0.9978724122047424,
        -0.9978724122047424,
        -1.0
      ],
      "type": "VEC3"
    },
    {
      "bufferView": 1,
      "byteOffset": 10848,
      "componentType": 5126,
      "count": 696,
      "max": [
        0.6969280242919922,
        0.9933720231056213
      ],
      "min": [
        0.3676140010356903,
        0.664480984210968
      ],
      "type": "VEC2"
    },
    {
      "bufferView": 0,
      "byteOffset": 26496,
      "componentType": 5125,
      "count": 3456,
      "type": "SCALAR"
    },
    {
      "bufferView": 2,
      "byteOffset": 49248,
      "componentType": 5126,
      "count": 1120,
      "max": [
        -0.11948700249195099,
        -4.771543979644775,
        1.550197958946228
      ],
      "min": [
        -1.2465070486068726,
        -5.829843997955322,
        0.13600300252437592
      ],
      "type": "VEC3"
    },
    {
      "bufferView": 2,
      "byteOffset": 62688,
      "componentType": 5126,
      "count": 1120,
      "max": [
        0.9981759786605835,
        0.9982246160507202,
        1.0
      ],
      "min": [
        -0.9981753826141357,
        -0.9981808662414551,
        -1.0
      ],
      "type": "VEC3"
    },
    {
      "bufferView": 1,
      "byteOffset": 16416,
      "componentType": 5126,
      "count": 1120,
      "max": [
        0.99378901720047,
        0.6521850228309631
      ],
      "min": [
        0.6682900190353394,
        0.32297199964523315
      ],
      "type": "VEC2"
    },
    {
      "bufferView": 0,
      "byteOffset": 40320,
      "componentType": 5125,
      "count": 5592,
      "type": "SCALAR"
    },
    {
      "bufferView": 2,
      "byteOffset": 76128,
      "componentType": 5126,
      "count": 615,
      "max": [
        1.3055399656295776,
        -2.556130886077881,
        1.3572520017623901
      ],
      "min": [
        0.379830002784729,
        -3.930917978286743,
        0.0982080027461052
      ],
      "type": "VEC3"
    },
    {
      "bufferView": 2,
      "byteOffset": 83508,
      "componentType": 5126,
      "count": 615,
      "max": [
        0.9996924996376038,
        0.9996924996376038,
        1.0
      ],
      "min": [
        -0.9996924996376038,
        -0.9996924996376038,
        -1.0
      ],
      "type": "VEC3"
    },
    {
      "bufferView": 1,
      "byteOffset": 25376,
      "componentType": 5126,
      "count": 615,
      "max": [
        0.3523220121860504,
        0.33584800362586975
      ],
      "min": [
        0.028723999857902527,
        0.006610000040382147
      ],
      "type": "VEC2"
    },
    {
      "bufferView": 0,
      "byteOffset": 62688,
      "componentType": 5125,
      "count": 3096,
      "type": "SCALAR"
    },
    {
      "bufferView": 2,
      "byteOffset": 90888,
      "componentType": 5126,
      "count": 804,
      "max": [
        0.6653680205345154,
        -0.22221499681472778,
        1.3780670166015625
      ],
      "min": [
        -1.081853985786438,
        -1.5809999704360962,
        0.13208100199699402
      ],
      "type": "VEC3"
    },
    {
      "bufferView": 2,
      "byteOffset": 100536,
      "componentType": 5126,
      "count": 804,
      "max": [
        0.9993429780006409,
        0.9959545731544495,
        1.0
      ],
      "min": [
        -0.9940963983535767,
        -0.9999076128005981,
        -1.0
      ],
      "type": "VEC3"
    },
    {
      "bufferView": 1,
      "byteOffset": 30296,
      "componentType": 5126,
      "count": 804,
      "max": [
        0.7292150259017944,
        0.3668859899044037
      ],
      "min": [
        0.40091800689697266,
        0.011955000460147858
      ],
      "type": "VEC2"
    },
    {
      "bufferView": 0,
      "byteOffset": 75072,
      "componentType": 5125,
      "count": 4032,
      "type": "SCALAR"
    },
    {
      "bufferView": 2,
      "byteOffset": 110184,
      "componentType": 5126,
      "count": 1092,
      "max": [
        -4.2469329833984375,
        -2.7273480892181396,
        2.154059886932373
      ],
      "min": [
        -5.35983419418335,
        -3.6086909770965576,
        0.13600300252437592
      ],
      "type": "VEC3"
    },
    {
      "bufferView": 2,
      "byteOffset": 123288,
      "componentType": 5126,
      "count": 1092,
      "max": [
        0.9998322129249573,
        0.9988240599632263,
        1.0
      ],
      "min": [
        -0.9997747540473938,
        -0.9995264410972595,
        -1.0
      ],
      "type": "VEC3"
    },
    {
      "bufferView": 1,
      "byteOffset": 36728,
      "componentType": 5126,
      "count": 1092,
      "max": [
        0.33906498551368713,
        0.9887109994888306
      ],
      "min": [
        0.0,
        0.0
      ],
      "type": "VEC2"
    },
    {
      "bufferView": 0,
      "byteOffset": 91200,
      "componentType": 5125,
      "count": 5310,
      "type": "SCALAR"
    }
  ],
  "asset": {
    "extras": {
      "author": "leha_pu (https://sketchfab.com/leha_pu)",
      "license": "CC-BY-4.0 (http://creativecommons.org/licenses/by/4.0/)",
      "source": "https://sketchfab.com/3d-models/mushrooms-f9dbd4c34a4f4389bf3901527ecc89a0",
      "title": "Mushrooms"
    },
    "generator": "Sketchfab-12.65.0",
    "version": "2.0"
  },
  "bufferViews": [
    {
      "buffer": 0,
      "byteLength": 112440,
      "name": "floatBufferViews",
      "target": 34963
    },
    {
      "buffer": 0,
      "byteLength": 45464,
      "byteOffset": 112440,
      "byteStride": 8,
      "name": "floatBufferViews",
      "target": 34962
    },
    {
      "buffer": 0,
      "byteLength": 136392,
      "byteOffset": 157904,
      "byteStride": 12,
      "name": "floatBufferViews",
      "target": 34962
    }
  ],
  "buffers": [
    {
      "byteLength": 294296,
      "uri": "mushrooms.bin"
    }
  ],
  "images": [
    {
      "uri": "textures/Mushrooms1_baseColor.png"
    }
  ],
  "materials": [
    {
      "doubleSided": true,
      "name": "Mushrooms1",
      "pbrMetallicRoughness": {
        "baseColorTexture": {
          "index": 0
        },
        "metallicFactor": 0.0,
        "roughnessFactor": 0.8
      }
    },
    {
      "doubleSided": true,
      "name": "Mushrooms2",
      "pbrMetallicRoughness": {
        "baseColorTexture": {
          "index": 0
        },
        "metallicFactor": 0.5063644212587175
      }
    },
    {
      "doubleSided": true,
      "name": "Mushrooms3",
      "pbrMetallicRoughness": {
        "baseColorTexture": {
          "index": 0
        },
        "metallicFactor": 0.0
      }
    },
    {
      "doubleSided": true,
      "name": "Mushrooms4",
      "pbrMetallicRoughness": {
        "baseColorTexture": {
          "index": 0
        },
        "metallicFactor": 0.0,
        "roughnessFactor": 0.9
      }
    },
    {
      "doubleSided": true,
      "name": "Mushrooms5",
      "pbrMetallicRoughness": {
        "baseColorTexture": {
          "index": 0
        },
        "metallicFactor": 0.0,
        "roughnessFactor": 0.7
      }
    },
    {
      "doubleSided": true,
      "name": "Mushrooms6",
      "pbrMetallicRoughness": {
        "baseColorTexture": {
          "index": 0
        },
        "metallicFactor": 0.0,
        "roughnessFactor": 0.8
      }
    },
    {
      "doubleSided": true,
      "name": "Mushrooms7",
      "pbrMetallicRoughness": {
        "baseColorTexture": {
          "index": 0
        },
        "metallicFactor": 0.0,
        "roughnessFactor": 0.6
      }
    }
  ],
  "meshes": [
    {
      "name": "Object_0",
      "primitives": [
        {
          "attributes": {
            "NORMAL": 1,
            "POSITION": 0,
            "TEXCOORD_0": 2
          },
          "indices": 3,
          "material": 1,
          "mode": 4
        }
      ]
    },
    {
      "name": "Object_1",
      "primitives": [
        {
          "attributes": {
            "NORMAL": 5,
            "POSITION": 4,
            "TEXCOORD_0": 6
          },
          "indices": 7,
          "material": 2,
          "mode": 4
        }
      ]
    },
    {
      "name": "Object_2",
      "primitives": [
        {
          "attributes": {
            "NORMAL": 9,
            "POSITION": 8,
            "TEXCOORD_0": 10
          },
          "indices": 11,
          "material": 3,
          "mode": 4
        }
      ]
    },
    {
      "name": "Object_3",
      "primitives": [
        {
          "attributes": {
            "NORMAL": 13,
            "POSITION": 12,
            "TEXCOORD_0": 14
          },
          "indices": 15,
          "material": 4,
          "mode": 4
        }
      ]
    },
    {
      "name": "Object_4",
      "primitives": [
        {
          "attributes": {
            "NORMAL": 17,
            "POSITION": 16,
            "TEXCOORD_0": 18
          },
          "indices": 19,
          "material": 5,
          "mode": 4
        }
      ]
    },
    {
      "name": "Object_5",
      "primitives": [
        {
          "attributes": {
            "NORMAL": 21,
            "POSITION": 20,
            "TEXCOORD_0": 22
          },
          "indices": 23,
          "material": 6,
          "mode": 4
        }
      ]
    },
    {
      "name": "Object_6",
      "primitives": [
        {
          "attributes": {
            "NORMAL": 25,
            "POSITION": 24,
            "TEXCOORD_0": 26
          },
          "indices": 27,
          "material": 0,
          "mode": 4
        }
      ]
    }
  ],
  "nodes": [
    {
      "children": [
        1
      ],
      "matrix": [
        0.5182944536209106,
        0.0,
        0.0,
        0.0,
        0.0,
        1.1508448718909007e-16,
        -0.5182944536209106,
        0.0,
        0.0,
        0.5182944536209106,
        1.1508448718909007e-16,
        0.0,
        0.0,
        0.0,
        0.0,
        1.0
      ],
      "name": "Sketchfab_model"
    },
    {
      "children": [
        2,
        3,
        4,
        5,
        6,
        7,
        8
      ],
      "name": "mushrooms.obj.cleaner.materialmerger.gles"
    },
    {
      "mesh": 0,
      "name": "Object_2"
    },
    {
      "mesh": 1,
      "name": "Object_3"
    },
    {
      "mesh": 2,
      "name": "Object_4"
    },
    {
      "mesh": 3,
      "name": "Object_5"
    },
    {
      "mesh": 4,
      "name": "Object_6"
    },
    {
      "mesh": 5,
      "name": "Object_7"
    },
    {
      "mesh": 6,
      "name": "Object_8"
    }
  ],
  "samplers": [
    {
      "magFilter": 9729,
      "minFilter": 9987,
      "wrapS": 10497,
      "wrapT": 10497
    }
  ],
  "scene": 0,
  "scenes": [
    {
      "name": "Sketchfab_Scene",
      "nodes": [
        0
      ]
    }
  ],
  "textures": [
    {
      "sampler": 0,
      "source": 0
    }
  ]
}
