{
  "accessors": [
    {
      "bufferView": 2,
      "componentType": 5126,
      "count": 1549,
      "max": [
        67.0719985961914,
        88.93132781982422,
        101.31147003173828
      ],
      "min": [
        -87.69985961914063,
        -86.7244873046875,
        -36.167510986328125
      ],
      "type": "VEC3"
    },
    {
      "bufferView": 2,
      "byteOffset": 18588,
      "componentType": 5126,
      "count": 1549,
      "max": [
        1.0,
        1.0,
        1.0
      ],
      "min": [
        -1.0,
        -1.0,
        -0.9994118213653564
      ],
      "type": "VEC3"
    },
    {
      "bufferView": 1,
      "componentType": 5126,
      "count": 1549,
      "max": [
        0.9980539083480835,
        0.9967197775840759
      ],
      "min": [
        0.0018063511233776808,
        0.0011242402251809835
      ],
      "type": "VEC2"
    },
    {
      "bufferView": 1,
      "byteOffset": 12392,
      "componentType": 5126,
      "count": 1549,
      "max": [
        0.8957237601280212,
        0.9846051335334778
      ],
      "min": [
        0.010999999940395355,
        0.09513158351182938
      ],
      "type": "VEC2"
    },
    {
      "bufferView": 0,
      "componentType": 5125,
      "count": 5193,
      "type": "SCALAR"
    },
    {
      "bufferView": 2,
      "byteOffset": 37176,
      "componentType": 5126,
      "count": 1825,
      "max": [
        72.88079071044922,
        71.07115173339844,
        113.76557922363281
      ],
      "min": [
        -73.1936264038086,
        -71.07115936279297,
        -84.98124694824219
      ],
      "type": "VEC3"
    },
    {
      "bufferView": 2,
      "byteOffset": 59076,
      "componentType": 5126,
      "count": 1825,
      "max": [
        1.0,
        1.0,
        1.0
      ],
      "min": [
        -1.0,
        -1.0,
        -0.9999223947525024
      ],
      "type": "VEC3"
    },
    {
      "bufferView": 1,
      "byteOffset": 24784,
      "componentType": 5126,
      "count": 1825,
      "max": [
        0.996688723564148,
        0.9981967806816101
      ],
      "min": [
        0.001944519579410553,
        0.0005232205148786306
      ],
      "type": "VEC2"
    },
    {
      "bufferView": 1,
      "byteOffset": 39384,
      "componentType": 5126,
      "count": 1825,
      "max": [
        0.9889999628067017,
        0.9888191223144531
      ],
      "min": [
        0.010999999940395355,
        0.010999999940395355
      ],
      "type": "VEC2"
    },
    {
      "bufferView": 0,
      "byteOffset": 20772,
      "componentType": 5125,
      "count": 5322,
      "type": "SCALAR"
    }
  ],
  "asset": {
    "extras": {
      "author": "MarcFont (https://sketchfab.com/MarcFont)",
      "license": "CC-BY-4.0 (http://creativecommons.org/licenses/by/4.0/)",
      "source": "https://sketchfab.com/3d-models/candy-turret-stylized-handpaint-f830c16ef09941a7a5a8aaac3ac7b579",
      "title": "Candy Turret Stylized Handpaint"
    },
    "generator": "Sketchfab-16.62.0",
    "version": "2.0"
  },
  "bufferViews": [
    {
      "buffer": 0,
      "byteLength": 42060,
      "name": "floatBufferViews",
      "target": 34963
    },
    {
      "buffer": 0,
      "byteLength": 53984,
      "byteOffset": 42060,
      "byteStride": 8,
      "name": "floatBufferViews",
      "target": 34962
    },
    {
      "buffer": 0,
      "byteLength": 80976,
      "byteOffset": 96044,
      "byteStride": 12,
      "name": "floatBufferViews",
      "target": 34962
    }
  ],
  "buffers": [
    {
      "byteLength": 177020,
      "uri": "candyTurret.bin"
    }
  ],
  "extensionsUsed": [
    "KHR_materials_unlit"
  ],
  "images": [
    {
      "uri": "textures/Material_2_baseColor.png"
    }
  ],
  "materials": [
    {
      "doubleSided": true,
      "extensions": {
        "KHR_materials_unlit": {}
      },
      "name": "Material_2",
      "pbrMetallicRoughness": {
        "baseColorTexture": {
          "index": 0
        },
        "metallicFactor": 0.0
      }
    }
  ],
  "meshes": [
    {
      "name": "Object003_Material #2_0",
      "primitives": [
        {
          "attributes": {
            "NORMAL": 1,
            "POSITION": 0,
            "TEXCOORD_0": 2,
            "TEXCOORD_1": 3
          },
          "indices": 4,
          "material": 0,
          "mode": 4
        }
      ]
    },
    {
      "name": "Object004_Material #2_0",
      "primitives": [
        {
          "attributes": {
            "NORMAL": 6,
            "POSITION": 5,
            "TEXCOORD_0": 7,
            "TEXCOORD_1": 8
          },
          "indices": 9,
          "material": 0,
          "mode": 4
        }
      ]
    }
  ],
  "nodes": [
    {
      "children": [
        1
      ],
      "matrix": [
        -1.6396758556365967,
        1.2174101789348916e-18,
        -4.644807871953674e-16,
        0.0,
        4.64482349662274e-16,
        0.0042975971814562565,
        -1.6396701871633752,
        0.0,
        3.0000057879863198e-33,
        -1.6396701871633752,
        -0.0042975971814562565,
        0.0,
        0.0,
        0.0,
        0.0,
        1.0
      ],
      "name": "Sketchfab_model"
    },
    {
      "children": [
        2
      ],
      "matrix": [
        0.009999999776482582,
        0.0,
        0.0,
        0.0,
        0.0,
        -0.009999999776482582,
        0.0,
        0.0,
        0.0,
        0.0,
        -0.009999999776482582,
        0.0,
        0.0,
        0.0,
        0.0,
        1.0
      ],
      "name": "5816b4f3a6d94edeba8416e6b6d1abe7.fbx"
    },
    {
      "children": [
        3,
        5
      ],
      "name": "RootNode"
    },
    {
      "children": [
        4
      ],
      "matrix": [
        1.0,
        1.2246467991473532e-16,
        -0.0,
        -0.0,
        1.2246467991473532e-16,
        -1.0,
        -1.2246467991473532e-16,
        -0.0,
        1.4997597826618576e-32,
        -1.2246467991473532e-16,
        1.0,
        -0.0,
        0.0,
        0.0,
        0.0,
        1.0
      ],
      "name": "Object003"
    },
    {
      "mesh": 0,
      "name": "Object003_Material #2_0"
    },
    {
      "children": [
        6
      ],
      "matrix": [
        0.9999999999999847,
        -1.7484555314694973e-07,
        0.0,
        0.0,
        1.7484555314694973e-07,
        0.9999999999999847,
        0.0,
        0.0,
        0.0,
        0.0,
        1.0,
        0.0,
        0.0,
        8.570293426513672,
        77.6734619140625,
        1.0
      ],
      "name": "Object004"
    },
    {
      "children": [
        7
      ],
      "matrix": [
        0.9999999999999847,
        -1.7484555286035968e-07,
        -0.0,
        0.0,
        1.7484555286035968e-07,
        0.9999999999999847,
        0.0,
        0.0,
        0.0,
        -0.0,
        1.0,
        0.0,
        0.0,
        0.0,
        0.0,
        1.0
      ],
      "name": "Object_6"
    },
    {
      "mesh": 1,
      "name": "Object004_Material #2_0"
    }
  ],
  "samplers": [
    {
      "magFilter": 9729,
      "minFilter": 9987,
      "wrapS": 10497,
      "wrapT": 10497
    }
  ],
  "scene": 0,
  "scenes": [
    {
      "name": "Sketchfab_Scene",
      "nodes": [
        0
      ]
    }
  ],
  "textures": [
    {
      "sampler": 0,
      "source": 0
    }
  ]
}
